<svg width="505" height="512" viewBox="0 0 505 512" fill="none" xmlns="http://www.w3.org/2000/svg">
<path fill-rule="evenodd" clip-rule="evenodd" d="M45.4176 0.0236543H251.743C438.279 -0.0843803 458.501 0.131689 464.124 1.64417C467.585 2.61649 473.316 4.88522 476.884 6.82984C480.453 8.66643 486.076 12.8798 489.32 16.1208C492.781 19.686 496.673 24.9797 498.62 29.085C500.566 32.9742 502.729 38.8081 503.486 42.0491C504.784 46.9107 505 83.9666 505 255.958C505 427.949 504.784 465.005 503.486 469.866C502.729 473.108 500.566 478.941 498.62 482.723C496.782 486.72 492.672 492.338 489.32 495.687C486.076 499.036 480.453 503.249 476.884 505.086C473.316 507.03 467.585 509.299 464.124 510.271C458.609 511.784 438.171 512 252.5 512C66.8287 512 46.3908 511.784 40.7677 510.271C37.4154 509.299 31.6842 507.03 28.1156 505.086C24.5471 503.249 18.924 499.036 15.6799 495.795C12.2195 492.23 8.32655 486.936 6.38009 482.831C4.43362 478.941 2.27088 473.108 1.51392 469.866C0.216274 465.005 0 427.949 0 255.958C0 83.9666 0.216274 46.9107 1.51392 42.0491C2.27088 38.8081 4.43362 32.9742 6.38009 29.085C8.21842 25.3038 12.1113 19.686 15.1392 16.661C18.0589 13.636 22.9251 9.63874 25.9529 7.91019C28.8726 6.18163 34.4957 3.69683 38.3887 2.40042L45.4176 0.0236543ZM12.9764 469.326C17.6263 478.941 21.0867 484.019 23.682 486.828C26.2773 489.637 31.0353 493.31 34.1713 494.931C37.4154 496.551 42.7141 498.388 45.9582 499.036C49.8512 499.792 120.789 500.008 256.285 499.792L460.664 499.576C470.072 495.903 475.262 492.446 478.831 489.097C483.156 485.207 486.292 481.102 488.563 476.349L492.024 469.326L492.456 94.9861H12.4358L12.9764 469.326Z" fill="#363D3D"/>
<path d="M32.4409 17.6332C34.8199 16.2287 39.4698 14.3921 42.7139 13.5279C47.9045 12.1234 75.2632 11.9073 460.664 12.3395L466.611 14.7163C470.072 16.0127 475.262 19.4698 478.831 22.8189C483.156 26.7081 486.292 30.8134 492.023 42.4812L492.564 83.1022H12.4355L12.6518 62.8997C12.9762 43.6695 13.0844 42.2651 15.6797 36.6473C17.1936 33.4062 20.654 28.3286 23.2493 25.4117C25.9527 22.6028 30.0619 19.0376 32.4409 17.6332Z" fill="#FFA431"/>
<path d="M66.3962 47.5589C66.2881 44.1018 66.7206 42.9134 68.7752 41.509C70.181 40.6447 72.56 39.8885 74.0739 39.8885C75.5878 39.8885 77.8587 40.9688 79.2645 42.3733C80.5621 43.6697 81.7516 45.7223 81.7516 46.9107C81.7516 48.0991 80.7784 50.3678 79.4808 51.9883C78.0389 54.005 76.3448 55.0133 74.3983 55.0133C72.6681 55.0133 70.2891 54.2571 68.9915 53.3928C67.1531 52.2044 66.5043 50.5839 66.3962 47.5589Z" fill="#363D3D"/>
<path d="M106.407 47.3428C106.299 46.3705 107.38 44.3179 108.678 42.6974C110.3 40.7527 112.03 39.8885 114.409 39.8885C116.572 39.7804 118.626 40.6447 120.032 42.1572C121.222 43.3456 122.195 45.8304 122.195 47.4509C122.195 49.0714 121.222 51.5562 120.032 52.7446C118.626 54.2571 116.572 55.1213 114.409 55.0133C111.814 55.0133 110.192 54.149 108.678 51.9883C107.38 50.3678 106.407 48.3152 106.407 47.3428Z" fill="#363D3D"/>
<path d="M147.607 47.4509C147.607 45.6143 148.58 43.2375 149.77 42.0491C150.959 40.8608 153.338 39.8885 155.177 39.8885C157.015 39.8885 159.394 40.8608 160.584 42.0491C161.773 43.2375 162.746 45.6143 162.746 47.4509C162.746 49.2875 161.773 51.6642 160.584 52.8526C159.394 54.041 157.015 55.0133 155.177 55.0133C153.338 55.0133 150.959 54.041 149.77 52.8526C148.58 51.6642 147.607 49.2875 147.607 47.4509Z" fill="#363D3D"/>
<path d="M271.748 50.1517C270.667 47.9911 270.667 46.9107 271.64 44.75L273.046 42.0491H355.987C433.089 42.0491 439.145 42.2652 440.983 43.9938C442.064 44.9661 442.821 46.5866 442.821 47.4509C442.821 48.3152 441.956 49.9357 440.875 51.016C439.145 52.8526 434.278 52.9606 273.046 52.8526L271.748 50.1517Z" fill="#363D3D"/>
<path d="M63.5846 152.677C68.9915 147.167 71.4786 145.654 77.2099 143.818C84.2388 141.549 85.5364 141.549 292.943 141.981L298.891 144.79C302.243 146.303 307.001 149.436 309.596 151.812C312.3 154.189 315.76 159.051 321.059 170.07V323.479L318.355 329.421C316.842 332.662 313.597 337.524 311.218 340.225C308.731 342.926 303.865 346.599 294.025 351.568H79.9133L73.9658 348.868C70.7217 347.247 65.8555 343.898 63.2602 341.305C60.5568 338.604 57.2045 333.743 52.8791 324.56L52.6628 248.071C52.3384 172.123 52.3384 171.691 54.7174 165.425C56.3394 160.995 58.9347 157.43 63.5846 152.677Z" fill="#363D3D"/>
<path d="M350.688 179.901C350.58 178.173 351.445 176.66 353.068 175.472C355.338 174.068 362.692 173.851 411.353 173.851C459.258 173.851 467.477 174.068 469.531 175.472C470.937 176.444 471.91 178.173 471.91 179.793C471.91 181.306 471.153 183.25 470.288 184.115C468.774 185.519 460.664 185.735 411.353 185.735C361.827 185.735 353.824 185.519 352.419 184.115C351.554 183.25 350.797 181.306 350.688 179.901Z" fill="#363D3D"/>
<path d="M350.58 233.919C350.472 232.73 351.337 230.894 352.419 229.813C354.257 227.977 357.609 227.869 411.245 227.869C463.692 227.869 468.342 228.085 470.072 229.813C471.153 230.786 472.018 232.622 471.91 233.811C471.91 234.999 471.045 236.836 470.072 237.916C468.233 239.645 464.449 239.861 411.353 239.753C359.123 239.753 354.473 239.537 352.743 237.808C351.662 236.836 350.689 234.999 350.58 233.919Z" fill="#363D3D"/>
<path d="M350.688 288.26C350.688 287.072 351.229 285.127 351.878 283.939C353.068 281.994 354.906 281.886 411.137 281.886C456.663 281.886 469.531 282.102 470.612 283.183C471.369 283.939 472.018 285.883 471.91 287.612C471.91 289.449 471.045 291.177 469.531 292.149C467.477 293.554 459.258 293.77 411.353 293.77C363.557 293.77 355.338 293.554 353.284 292.149C351.878 291.285 350.797 289.557 350.688 288.26Z" fill="#363D3D"/>
<path d="M350.688 340.873C350.58 339.145 351.445 337.632 353.068 336.444C355.338 335.039 362.692 334.823 411.353 334.823C459.258 334.823 467.477 335.039 469.531 336.444C470.937 337.416 471.91 339.145 471.91 340.765C471.91 342.277 471.153 344.222 470.288 345.086C468.774 346.491 460.664 346.707 411.353 346.707C361.827 346.707 353.824 346.491 352.419 345.086C351.554 344.222 350.797 342.277 350.688 340.873Z" fill="#363D3D"/>
<path d="M42.4979 394.566C42.4979 393.27 43.2549 391.433 44.2281 390.569C45.8501 389.057 66.2881 388.84 252.5 388.84C434.603 388.84 459.15 389.057 460.556 390.461C461.529 391.325 462.178 393.162 462.178 394.458C462.178 395.863 461.313 397.807 460.339 398.888C458.501 400.724 448.661 400.832 252.392 400.724C58.9347 400.724 46.2827 400.508 44.5525 398.78C43.4711 397.807 42.606 395.863 42.4979 394.566Z" fill="#363D3D"/>
<path d="M42.3898 448.476C42.2816 446.855 42.9304 444.91 43.6874 444.154C44.8769 443.182 55.0418 442.858 82.0761 442.858C110.3 442.858 119.167 443.182 120.248 444.154C121.005 444.91 121.654 446.855 121.546 448.476C121.546 450.42 120.681 452.149 119.167 453.121C117.112 454.526 111.165 454.742 82.0761 454.742C53.0953 454.742 47.1478 454.526 45.0932 453.121C43.6874 452.149 42.4979 450.204 42.3898 448.476Z" fill="#363D3D"/>
<path d="M142.957 448.476C142.849 446.855 143.498 444.91 144.255 444.154C145.444 443.182 159.394 442.858 199.945 442.858C242.227 442.858 254.338 443.074 255.42 444.154C256.177 444.91 256.826 446.855 256.717 448.476C256.717 450.42 255.852 452.149 254.338 453.121C252.284 454.526 244.39 454.742 199.945 454.742C155.501 454.742 147.715 454.526 145.661 453.121C144.255 452.149 143.065 450.204 142.957 448.476Z" fill="#363D3D"/>
<path d="M291.213 448.043C291.213 447.071 291.97 445.451 292.943 444.586C294.565 443.074 303.757 442.858 377.182 442.858C442.172 442.858 459.799 443.074 460.88 444.154C461.637 444.91 462.286 446.855 462.178 448.476C462.178 450.42 461.313 452.149 459.799 453.121C457.636 454.526 446.606 454.742 375.884 454.417L375.431 454.416C295.857 454.201 294.346 454.197 292.835 452.041C291.97 450.852 291.321 449.016 291.213 448.043Z" fill="#363D3D"/>
<path d="M100.675 291.609C116.896 269.354 131.386 250.556 132.684 249.8C134.09 249.043 136.253 248.503 137.658 248.395C138.956 248.395 141.551 249.692 143.281 251.312C145.12 253.041 160.583 273.567 209.029 339.685L146.958 339.901C87.2664 340.225 84.6711 340.117 79.805 338.064C76.8853 336.876 73.7493 335.147 72.7761 334.067C71.0459 332.23 72.6679 329.853 100.675 291.609Z" fill="#A7D930"/>
<path d="M202.216 309.759L218.004 294.202C233.468 278.861 233.792 278.645 243.308 278.645L271.208 306.518C286.455 321.751 298.891 334.715 298.674 335.363C298.458 335.903 296.079 337.308 293.484 338.28C289.375 339.793 284.076 340.117 224.384 340.225L215.409 328.017C210.435 321.427 205.46 314.512 202.216 309.759Z" fill="#A7D930"/>
<path d="M74.8311 157.97C76.5613 156.89 79.5891 155.486 81.6437 154.729C84.5634 153.757 109.976 153.433 186.537 153.325C272.722 153.325 288.402 153.541 292.511 154.837C295.323 155.81 299.324 158.403 302.027 161.103C304.73 163.804 307.326 167.802 308.299 170.61C309.597 174.716 309.813 187.032 309.813 246.775C309.813 292.041 309.488 319.374 308.732 321.535C308.191 323.48 307.326 325.1 306.893 325.1C306.352 325.1 293.592 312.676 278.453 297.443C263.206 282.21 249.256 269.138 247.418 268.274C245.471 267.41 241.47 266.761 238.442 266.761C235.523 266.761 231.414 267.518 229.575 268.49C227.629 269.462 219.086 277.133 210.651 285.451C201.135 294.958 194.863 300.36 194.323 299.712C193.782 299.064 184.158 286.1 172.911 270.651C161.665 255.31 151.284 241.805 149.77 240.833C148.256 239.753 144.904 238.348 142.2 237.592C138.416 236.62 136.253 236.62 132.468 237.592C129.765 238.348 126.412 239.753 124.899 240.725C123.385 241.805 109.327 260.279 64.8825 320.887L64.558 248.179C64.4499 208.207 64.558 173.96 64.7743 172.231C65.0987 170.394 66.8289 166.937 68.6673 164.344C70.3974 161.86 73.209 158.943 74.8311 157.97Z" fill="#DBEAF2"/>
<path d="M204.379 177.849C206.758 176.66 210.651 175.256 213.03 174.932C215.409 174.5 218.761 174.392 220.599 174.716C222.438 174.932 225.249 175.58 227.088 176.12C228.926 176.552 232.278 178.389 234.657 180.118C237.577 182.062 240.172 185.411 242.551 190.057C244.93 194.918 246.012 198.591 246.012 201.941C246.012 204.641 245.255 209.179 244.173 212.204C242.984 215.769 240.605 219.334 237.144 222.683C233.251 226.572 230.44 228.301 225.79 229.597C221.464 230.786 217.896 231.11 214.111 230.57C211.191 230.138 206.974 228.949 204.919 227.977C202.865 226.897 199.188 223.872 196.809 221.171C194.43 218.47 191.835 214.473 191.186 212.096C190.429 209.827 189.78 205.182 189.78 201.941C189.78 198.267 190.645 194.162 192.051 191.137C193.241 188.436 195.512 184.871 197.134 183.251C198.756 181.522 202 179.145 204.379 177.849Z" fill="#363D3D"/>
<path d="M203.406 194.378C204.704 192.109 207.407 189.625 210.327 188.112C213.895 186.276 216.274 185.735 219.518 186.168C221.897 186.492 225.033 187.68 226.547 188.76C228.061 189.841 230.332 192.434 231.738 194.486C233.252 196.863 234.117 199.672 234.117 202.481C234.117 204.858 232.927 208.639 231.63 210.907C230.116 213.608 227.629 215.769 224.384 217.282C221.14 218.794 218.221 219.334 215.734 219.01C213.679 218.794 210.327 217.498 208.488 216.201C206.542 214.905 204.163 212.204 203.081 210.367C202.108 208.423 201.351 204.858 201.243 202.481C201.243 200.104 202.216 196.431 203.406 194.378Z" fill="#FFA431"/>
</svg>
